<?xml version="1.0"?>
<svg xmlns="http://www.w3.org/2000/svg" xmlns:xlink="http://www.w3.org/1999/xlink" xmlns:svgjs="http://svgjs.com/svgjs" version="1.1" width="512" height="512" x="0" y="0" viewBox="0 0 512 512" style="enable-background:new 0 0 512 512" xml:space="preserve" class=""><g><g xmlns="http://www.w3.org/2000/svg"><g><g><g><g><g fill="#fbc980"><path d="m295.858 109.308h-35.229v-84.193c0-9.728 7.886-17.615 17.615-17.615 9.728 0 17.615 7.886 17.615 17.615v84.193z" fill="#fbc980" data-original="#fbc980" style=""/><path d="m216.074 109.308h-35.229v-84.193c0-9.728 7.886-17.615 17.615-17.615 9.728 0 17.615 7.886 17.615 17.615v84.193z" fill="#fbc980" data-original="#fbc980" style=""/></g><g><g><circle cx="238.351" cy="284.542" fill="#f9bc66" r="219.958" data-original="#f9bc66" style="" class=""/><circle cx="238.351" cy="284.542" fill="#f1faff" r="184.109" data-original="#f1faff" style="" class=""/><path d="m238.351 100.433c-11.148 0-22.065.992-32.667 2.89 86.097 15.417 151.442 90.686 151.442 181.218s-65.345 165.802-151.442 181.218c10.602 1.898 21.518 2.89 32.667 2.89 101.68 0 184.108-82.428 184.108-184.109s-82.427-184.107-184.108-184.107z" fill="#dcf5ff" data-original="#dcf5ff" style="" class=""/></g></g></g></g><g><g><path d="m238.351 245.041c7.207 0 13.956 1.94 19.773 5.311 8.586-16.424 14.185-39.518 14.185-50.893 0-18.755-15.204-33.958-33.958-33.958-18.755 0-33.958 15.204-33.958 33.958 0 11.375 5.599 34.469 14.186 50.893 5.816-3.372 12.566-5.311 19.772-5.311z" fill="#ff79b3" data-original="#ff79b3" style="" class=""/><path d="m238.351 324.043c-7.207 0-13.956-1.94-19.773-5.311-8.587 16.425-14.186 39.518-14.186 50.893 0 18.755 15.204 33.958 33.958 33.958 18.755 0 33.958-15.203 33.958-33.958 0-11.375-5.599-34.469-14.185-50.893-5.815 3.371-12.565 5.311-19.772 5.311z" fill="#ff79b3" data-original="#ff79b3" style="" class=""/><path d="m323.435 250.583c-11.375 0-34.469 5.599-50.893 14.186 3.371 5.816 5.311 12.566 5.311 19.773s-1.939 13.956-5.311 19.773c16.424 8.587 39.518 14.185 50.893 14.185 18.755 0 33.958-15.203 33.958-33.958s-15.203-33.959-33.958-33.959z" fill="#ff79b3" data-original="#ff79b3" style="" class=""/><g fill="#fca2cd"><path d="m322.527 200.366c-13.262-13.262-34.763-13.262-48.025 0-.744.744-1.529 1.607-2.339 2.549-.921 12.15-6.254 32.531-14.045 47.433 5.979 3.464 10.963 8.448 14.427 14.427 14.902-7.791 35.283-13.124 47.433-14.045.942-.81 1.805-1.595 2.548-2.339 13.262-13.262 13.262-34.763.001-48.025z" fill="#fca2cd" data-original="#fca2cd" style="" class=""/><path d="m218.585 250.348c-7.792-14.902-13.125-35.283-14.045-47.433-.809-.941-1.595-1.805-2.339-2.549-13.262-13.262-34.763-13.262-48.024 0-13.262 13.262-13.262 34.763 0 48.025.744.744 1.607 1.529 2.548 2.339 12.15.921 32.531 6.254 47.433 14.045 3.464-5.979 8.447-10.963 14.427-14.427z" fill="#fca2cd" data-original="#fca2cd" style="" class=""/><path d="m322.527 320.692c-.744-.743-1.607-1.529-2.549-2.339-12.15-.921-32.531-6.253-47.433-14.045-3.464 5.979-8.448 10.963-14.427 14.427 7.791 14.902 13.124 35.282 14.045 47.433.809.942 1.595 1.805 2.339 2.549 13.262 13.262 34.763 13.262 48.025 0 13.261-13.261 13.261-34.763 0-48.025z" fill="#fca2cd" data-original="#fca2cd" style="" class=""/><path d="m204.158 304.309c-14.902 7.791-35.282 13.124-47.433 14.045-.942.81-1.805 1.595-2.549 2.339-13.262 13.262-13.262 34.763 0 48.025s34.763 13.262 48.024 0c.744-.744 1.53-1.607 2.339-2.549.921-12.15 6.254-32.531 14.045-47.433-5.979-3.465-10.962-8.448-14.426-14.427z" fill="#fca2cd" data-original="#fca2cd" style="" class=""/></g></g><circle cx="238.351" cy="284.542" fill="#ffdaea" r="39.501" data-original="#ffdaea" style="" class=""/><path d="m198.851 284.542c0-7.206 1.939-13.956 5.311-19.773-16.424-8.587-39.518-14.186-50.893-14.186-18.755 0-33.958 15.204-33.958 33.959s15.204 33.958 33.958 33.958c11.375 0 34.469-5.599 50.893-14.185-3.372-5.817-5.311-12.567-5.311-19.773z" fill="#ff79b3" data-original="#ff79b3" style="" class=""/></g></g><path d="m428.374 102.084c-7.165-7.165-7.165-18.782 0-25.946l33.925-33.925c7.165-7.165 18.781-7.165 25.946 0 7.165 7.165 7.165 18.781 0 25.946l-33.925 33.925c-7.165 7.165-18.781 7.165-25.946 0z" fill="#97e4f9" data-original="#97e4f9" style="" class=""/></g><g><path d="m415.786 154.308c-3.418 2.339-4.294 7.006-1.955 10.425 24.191 35.361 36.979 76.791 36.979 119.809 0 117.15-95.309 212.458-212.459 212.458s-212.458-95.308-212.458-212.458 95.308-212.459 212.458-212.459c45.702 0 90.573 14.291 128.814 43.49 3.293 2.513 7.999 1.883 10.513-1.409s1.883-7.999-1.409-10.513c-22.189-16.942-46.79-29.435-72.911-37.195v-23.266h22.269c4.142 0 7.5-3.358 7.5-7.5s-3.358-7.5-7.5-7.5h-22.269v-3.076c0-13.847-11.267-25.114-25.115-25.114s-25.115 11.267-25.115 25.115v3.076h-29.554v-3.076c0-13.848-11.266-25.115-25.114-25.115s-25.115 11.267-25.115 25.115v3.076h-22.269c-4.142 0-7.5 3.358-7.5 7.5s3.358 7.5 7.5 7.5h22.269v23.281c-92.162 27.338-162.452 113.184-162.452 218.07 0 125.708 101.731 227.458 227.458 227.458 125.709 0 227.459-101.732 227.459-227.458 0-46.054-13.693-90.412-39.599-128.279-2.338-3.418-7.007-4.295-10.425-1.955zm-137.543-139.308c5.577 0 10.115 4.538 10.115 10.115v37.444c-6.663-1.487-13.411-2.67-20.229-3.554v-33.89c-.001-5.577 4.537-10.115 10.114-10.115zm-25.115 28.19v14.365c-4.897-.31-9.824-.472-14.777-.472s-9.878.174-14.777.486v-14.379zm-64.783-18.075c0-5.577 4.538-10.115 10.115-10.115s10.115 4.538 10.115 10.115v33.902c-6.819.886-13.569 2.064-20.229 3.551v-37.453z" fill="#000000" data-original="#000000" style="" class=""/><path d="m351.777 139.319c2.417-3.364 1.65-8.05-1.713-10.468-32.693-23.498-71.322-35.918-111.712-35.918-105.653 0-191.608 85.956-191.608 191.609s85.954 191.608 191.607 191.608 191.609-85.955 191.609-191.608c0-36.573-10.342-72.134-29.907-102.837-2.226-3.493-6.861-4.519-10.356-2.294-3.493 2.226-4.52 6.862-2.294 10.356 18.028 28.29 27.557 61.063 27.557 94.775 0 97.382-79.226 176.608-176.608 176.608s-176.609-79.226-176.609-176.608 79.226-176.609 176.608-176.609c37.229 0 72.832 11.445 102.958 33.099 3.364 2.417 8.05 1.65 10.468-1.713z" fill="#000000" data-original="#000000" style="" class=""/><path d="m493.549 36.909c-10.101-10.101-26.45-10.102-36.553 0l-33.926 33.925c-8.419 8.419-9.653 20.916-4.525 30.472l-72.313 72.313c-2.929 2.929-2.929 7.678 0 10.606 2.929 2.929 7.678 2.929 10.606 0l72.323-72.323c9.809 5.237 22.248 3.699 30.462-4.516l33.925-33.925c10.078-10.077 10.078-26.474.001-36.552zm-10.607 25.946-33.925 33.925c-4.229 4.229-11.11 4.229-15.34 0-4.238-4.238-4.24-11.1 0-15.34l33.925-33.925c4.231-4.23 11.11-4.229 15.34 0 4.229 4.23 4.229 11.111 0 15.34z" fill="#000000" data-original="#000000" style="" class=""/><path d="m364.893 284.542c0-18.965-12.805-34.985-30.22-39.898 8.84-15.788 6.567-36.171-6.844-49.581-13.41-13.41-33.791-15.683-49.581-6.842-4.911-17.416-20.931-30.221-39.897-30.221-18.965 0-34.985 12.805-39.898 30.22-15.788-8.84-36.171-6.567-49.581 6.843s-15.684 33.792-6.843 49.581c-17.415 4.913-30.22 20.933-30.22 39.898s12.805 34.985 30.22 39.897c-8.84 15.788-6.567 36.171 6.843 49.581 8.083 8.083 18.698 12.124 29.316 12.124 6.998-.001 13.992-1.769 20.265-5.28 4.913 17.415 20.933 30.22 39.898 30.22s34.985-12.805 39.898-30.22c6.273 3.512 13.266 5.28 20.265 5.28 10.617 0 21.233-4.041 29.315-12.123 13.41-13.41 15.684-33.793 6.843-49.581 17.416-4.913 30.221-20.933 30.221-39.898zm-47.67-78.873c10.475 10.475 10.294 27.594-.426 37.833-11.471 1.289-27.821 5.492-41.743 11.729-2.184-2.729-4.664-5.209-7.393-7.393 6.237-13.922 10.44-30.272 11.729-41.743 10.227-10.711 27.35-10.908 37.833-.426zm-110.873 78.873c0-17.646 14.355-32.001 32.001-32.001s32.001 14.355 32.001 32.001c0 17.645-14.355 32-32.001 32s-32.001-14.355-32.001-32zm32.001-111.542c14.589 0 26.458 11.869 26.458 26.458 0 8.959-4.091 26.622-10.274 40.955-5.048-1.857-10.5-2.873-16.185-2.873s-11.137 1.015-16.185 2.873c-6.182-14.333-10.274-31.996-10.274-40.955.002-14.589 11.871-26.458 26.46-26.458zm-78.872 32.669c10.316-10.315 27.101-10.316 37.418 0 .129.129.279.293.417.437 1.291 11.47 5.493 27.814 11.728 41.732-2.729 2.184-5.209 4.664-7.393 7.393-13.917-6.235-30.262-10.437-41.732-11.728-.144-.138-.308-.288-.437-.416-10.317-10.316-10.317-27.101-.001-37.418zm-32.669 78.873c0-14.589 11.869-26.459 26.458-26.459 11.011 0 29.584 5.369 40.955 10.274-1.857 5.048-2.873 10.5-2.873 16.185s1.015 11.137 2.873 16.185c-14.333 6.182-31.996 10.273-40.955 10.273-14.589 0-26.458-11.869-26.458-26.458zm32.669 78.872c-10.316-10.316-10.316-27.102-.001-37.417.13-.13.294-.28.439-.419 11.47-1.291 27.814-5.492 41.731-11.727 2.184 2.729 4.664 5.209 7.393 7.393-6.237 13.922-10.44 30.273-11.729 41.743-10.235 10.713-27.35 10.909-37.833.427zm78.872 32.669c-14.589 0-26.458-11.869-26.458-26.458 0-8.959 4.091-26.622 10.274-40.955 5.048 1.857 10.5 2.873 16.185 2.873s11.137-1.015 16.185-2.873c6.182 14.333 10.274 31.997 10.274 40.955-.001 14.589-11.87 26.458-26.46 26.458zm78.872-32.669c-10.317 10.316-27.408 10.461-37.835-.438-1.291-11.47-5.493-27.814-11.728-41.731 2.729-2.184 5.209-4.664 7.393-7.393 13.917 6.235 30.261 10.437 41.732 11.727 10.898 10.422 10.756 27.517.438 37.835zm6.212-52.414c-8.959 0-26.623-4.091-40.955-10.274 1.857-5.048 2.873-10.5 2.873-16.184 0-5.685-1.015-11.137-2.873-16.185 11.285-4.868 29.933-10.274 40.955-10.274 14.589 0 26.458 11.87 26.458 26.459s-11.869 26.458-26.458 26.458z" fill="#000000" data-original="#000000" style="" class=""/></g></g></g></svg>
